<svg xmlns="http://www.w3.org/2000/svg" viewBox="0 0 220.43 294.06"><defs><style>.cls-1{fill:#e7f900;}.cls-1,.cls-2,.cls-3,.cls-4,.cls-5,.cls-6,.cls-7{stroke:#000;}.cls-1,.cls-2,.cls-3,.cls-4,.cls-5,.cls-6,.cls-7,.cls-8{stroke-miterlimit:10;}.cls-1,.cls-7{stroke-width:4px;}.cls-2{fill:red;}.cls-3,.cls-4,.cls-8{fill:#fff;}.cls-4,.cls-5,.cls-6{stroke-width:2px;}.cls-5{fill:#ffb806;}.cls-6{fill:none;}.cls-7{fill:#fcfcfc;}.cls-8{stroke:#020000;}</style></defs><title>Artboard 1</title><g id="Layer_2" data-name="Layer 2"><polygon class="cls-1" points="211.88 279.8 207.93 276.15 200.93 273.1 190.28 265.8 182.37 256.67 176.89 247.54 173.85 238.42 173.24 229.29 172.32 225.64 173.85 223.2 177.8 218.94 180.54 216.2 181.15 213.16 185.41 213.16 188.15 211.64 187.54 208.6 191.5 208.6 195.15 204.64 196.36 201.9 197.88 199.47 199.71 197.34 203.36 194.6 203.36 184.86 201.23 180.3 199.71 174.21 198.19 171.78 198.19 166.3 196.36 162.95 196.67 157.17 196.67 153.22 198.19 148.35 198.19 118.22 176.59 118.22 177.19 115.79 178.11 113.66 181.76 112.14 184.19 109.4 183.89 106.97 183.28 104.53 183.28 100.58 186.32 97.53 185.71 95.71 184.5 93.27 184.5 89.92 185.71 86.58 189.06 83.84 192.71 81.71 194.23 79.28 194.23 71.97 190.58 69.84 188.45 71.06 186.32 75.02 183.58 75.02 181.76 70.75 181.76 27.85 174.15 43.37 168.98 19.33 156.2 38.5 149.81 16.59 139.77 39.11 130.35 18.72 122.42 38.8 116.94 12.94 112.08 40.33 107.51 22.98 103.25 40.63 99.6 26.94 95.95 69.23 93.21 65.58 90.17 63.15 88.04 63.15 86.52 66.19 86.82 70.75 89.25 74.1 87.43 77.14 87.13 80.8 88.65 84.75 91.99 87.49 94.43 89.92 90.78 92.36 87.13 95.1 87.43 103.62 88.95 108.18 91.69 110.31 94.12 104.83 97.47 98.75 96.56 105.14 96.56 112.14 98.38 114.88 94.43 116.7 90.78 116.7 83.17 117.01 77.08 117.01 71.91 118.22 70.39 124.92 69.48 130.4 69.48 137.09 68.26 139.52 69.78 152.61 68.87 155.95 67.95 162.04 67.95 168.43 68.87 174.82 65.52 180.6 63.7 186.38 63.7 192.77 67.04 197.95 68.56 199.47 70.39 204.94 75.26 205.25 76.17 207.99 78 211.64 81.65 211.64 84.39 211.94 87.43 215.9 90.17 218.94 91.99 222.29 95.34 225.33 100.21 228.98 101.12 232.63 100.51 237.5 99.91 241.76 98.69 248.15 96.86 255.15 95.04 260.32 91.69 263.06 87.13 265.8 78.3 270.06 72.52 275.54 67.95 278.89 65.22 282.54 60.04 284.67 60.04 289.23 67.95 289.23 72.22 287.41 117.25 287.41 118.16 285.88 118.77 283.15 117.86 278.28 116.94 275.23 116.03 270.06 116.03 263.67 117.55 256.67 117.86 250.89 119.08 244.81 121.51 239.33 124.25 235.68 128.2 235.98 133.99 235.68 137.33 235.68 144.63 234.76 149.5 233.85 151.63 236.29 153.16 239.33 155.59 243.59 158.02 246.63 159.85 250.59 161.37 256.37 162.59 260.02 161.98 263.06 160.76 267.32 160.15 273.41 159.85 277.97 160.46 285.28 215.23 287.41 215.23 283.15 211.88 279.8"/><line class="cls-1" x1="68.26" y1="139.52" x2="69.78" y2="152.21"/></g><g id="Layer_3" data-name="Layer 3"><polygon class="cls-2" points="42.7 118.53 36.01 103.62 30.22 116.09 12.57 106.66 14.71 116.09 17.14 127.96 3.45 140.74 19.27 143.48 20.18 162.65 33.88 148.65 49.7 158.08 47.26 139.83 50.91 139.83 47.87 133.13 44.83 126.74 42.7 118.53"/></g><g id="Layer_4" data-name="Layer 4"><polygon class="cls-3" points="39.96 120.96 36.01 111.83 31.44 122.79 18.66 114.88 23.53 131 9.23 138.61 24.59 140.44 22.62 154.74 32.66 144.09 44.52 151.39 42.7 137.09 47.57 137.7 39.96 120.96"/></g><g id="Layer_5" data-name="Layer 5"><path class="cls-4" d="M35.09,128.57s8.95-14.09,14-15.22c1.76-.39,5.51,1.37,6.69,2.74,1.47,1.71,3.65,8.22,3.65,8.22v7.91l-3,5.17s6.18,7.38,9.13,8.22c2.08.59,8.52-1.52,8.52-1.52s4.29-2.11,5.78-1.83c2.4.45,7.61,6.09,7.61,6.09l3,4.56v4H87.73l-4.56-6.09-3-2.13h-4l-6.39,2.13s-2.9,1.61-4,1.52c-.88-.07-3-1.82-3-1.82L57.3,145.3l-4.56-5.47s-1.44-3-1.22-4.06,2.51-2.51,3-3.55a12.76,12.76,0,0,0,.3-3.65L54,124,53,120.35l-3,1.52a63.33,63.33,0,0,0-5.48,3.35A64,64,0,0,0,40,130.09l-2.13,2.13Z"/></g><g id="Layer_6" data-name="Layer 6"><polygon class="cls-3" points="91.99 148.04 96.56 150.17 98.99 153.82 100.21 158.69 98.99 163.87 96.1 165.08 91.99 165.08 89.25 162.04 85.6 160.21 85.6 155.35 91.99 148.04"/></g><g id="Layer_7" data-name="Layer 7"><polygon class="cls-3" points="91.99 149.56 91.99 152.61 91.99 155.95 87.73 158.39 84.08 158.39 86.82 161.43 91.99 159 94.43 155.5 94.43 152.3 94.43 149.56 91.99 149.56"/></g><g id="Layer_8" data-name="Layer 8"><polygon class="cls-3" points="94.12 150.48 94.12 155.04 92.91 156.87 91.69 158.69 89.56 161.13 86.21 161.13 88.95 166 92.6 166 99.3 163.87 101.43 158.24 101.43 154.13 94.12 150.48"/></g><g id="Layer_9" data-name="Layer 9"><polygon class="cls-4" points="98.38 149.26 100.82 146.22 106.6 147.74 111.47 144.09 116.94 141.35 122.42 139.52 130.29 141.35 138.85 144.39 146.16 149.26 151.94 149.26 158.63 151.09 161.68 152.91 163.81 152.91 167.46 148.65 171.41 150.78 177.19 155.65 183.58 163.87 188.45 172.69 189.97 179.38 189.97 190.03 185.41 199.77 182.37 210.42 178.41 216.81 172.93 222.29 165.94 226.55 157.72 229.9 144.18 233.24 133.68 235.37 119.99 233.85 112.08 233.24 104.47 230.5 96.56 226.55 89.86 221.68 84.39 214.38 84.39 210.73 81.04 203.42 81.04 191.56 81.04 179.99 82.86 170.56 85.91 162.95 91.69 162.04 93.21 158.69 95.04 155.35 98.38 149.26"/></g><g id="Layer_10" data-name="Layer 10"><polygon class="cls-5" points="107.82 148.96 112.38 148.96 116.03 145.3 119.99 145.3 125.16 145.3 130.35 145.3 137.64 150.17 143.11 150.17 147.68 153.82 153.46 153.82 157.41 155.95 163.2 155.95 166.54 155.95 168.98 154.74 173.85 159.3 175.67 165.39 178.41 168.43 182.97 177.56 184.19 183.34 184.19 188.21 182.06 193.08 182.06 196.73 179.32 201.6 181.15 205.25 178.11 207.68 176.59 210.73 174.46 215.59 170.5 218.33 172.32 213.46 172.32 207.99 169.28 205.86 164.11 209.2 159.54 212.55 156.2 216.81 153.46 221.07 154.98 225.03 160.76 225.03 154.37 228.07 146 230.5 135.51 230.5 120.9 230.5 110.25 228.37 103.86 227.46 100.21 224.72 94.73 221.07 91.08 216.2 88.34 211.94 86.21 209.51 84.08 205.25 84.08 200.68 84.08 197.64 84.08 192.16 84.08 187.9 86.21 183.34 86.52 177.86 85.6 174.21 85.91 171.47 89.86 168.73 91.08 166.6 96.86 166.91 99.3 166.91 103.56 163.56 104.17 158.39 101.73 149.56 107.82 148.96"/></g><g id="Layer_11" data-name="Layer 11"><polygon class="cls-3" points="146.76 209.51 150.42 204.03 154.68 204.03 158.02 204.03 158.02 206.77 154.07 209.51 150.72 213.77 146.76 216.51 144.63 216.51 146.76 209.51"/></g><g id="Layer_12" data-name="Layer 12"><path class="cls-6" d="M133.68,89l-3.33,4.57a30.76,30.76,0,0,1-3.06,2.73,48.71,48.71,0,0,1-5.78,2.44,60.24,60.24,0,0,1-6.7,0,22.24,22.24,0,0,1-5.17-1.52c-1.32-.67-3.63-2.54-4.87-3.35s-4.25-2.36-5.17-3.65C99,89.33,98.38,86,98.38,86s-1.26-3.62-1.52-4.87a16,16,0,0,1,0-6.09c.29-.88,1.67-2.23,2.13-3,.73-1.27,1.87-4,2.74-5.17a17.94,17.94,0,0,1,6.09-4.87c1.43-.5,6.08,0,6.08,0h10.65s4.54,1.18,5.74,2.13c1.37,1.08,3,4.4,3.39,6.09a23.18,23.18,0,0,1,0,4.56s.76,6.08,0,7.91c-.45,1.09-3.33,3.35-3.33,3.35l-2.15,3-4.26.91-5.17,2.74-3.5-.3-4.72-1.52-4.56-3-2.74-5.47-1.52-6.7,1.52-4L106.6,68l4.56-2.44,5.48-.61,4.26.31,2.74,1.21,4,3.35,1.22,3.35s1.68,3.61,1.48,4.87-3,4.26-3,4.26-4.25,4.22-6.09,4.87a14.56,14.56,0,0,1-7.3,0c-1.48-.56-5.17-3.66-5.17-3.66l-2.44-3.19a28.76,28.76,0,0,1,0-4.72c.28-1.23,1.21-3.71,2.13-4.56a18.34,18.34,0,0,1,4-1.83s3.81-2,5.17-1.82c1,.11,3.35,2.13,3.35,2.13l3.65,3,.31,3.35-1.53,4.41s-3,2.5-4.26,2.59c-1.64.11-6.08-2.59-6.08-2.59s-2.18-2.22-2.44-3.2a6.21,6.21,0,0,1,.92-3.65,7.46,7.46,0,0,1,3.8-2.13,7.22,7.22,0,0,1,3.8,1.22c.89.64,2.14,2.91,1.83,4s-2.39,2.4-3.35,2.13-2.28-3-2.28-3"/><path class="cls-6" d="M153.46,67.1a59.71,59.71,0,0,1,5.78-1.52,32.86,32.86,0,0,1,3.35,0H169a18.61,18.61,0,0,1,3.34,1.52,20.84,20.84,0,0,1,2.44,3.35l2.13,3.65,1.82,6.24v3.8a35.15,35.15,0,0,1-1.52,6.09,26,26,0,0,1-1.82,2.13c-.5.69-1,2.37-1.52,3a28.92,28.92,0,0,1-4.26,3.35,21,21,0,0,1-3.5,1.82c-1.59.39-6.55,0-6.55,0h-8.21l-4.26-1.82-2.44-4a27.35,27.35,0,0,1-2.73-4.26,13,13,0,0,1,0-5.78c.35-1.25,2.73-4.41,2.73-4.41a43.25,43.25,0,0,1,2.44-4.11,51.8,51.8,0,0,1,4.26-4l3-2.13,3.65-.31,3.65-.3s4.89-.55,6.39,0c1.22.44,4,3.34,4,3.34l2.13,3.66,1.22,6.54a17.1,17.1,0,0,1,0,4.11,12.42,12.42,0,0,1-1.83,2.43l-2.74,4s-3.23,4.46-4.87,5.17c-1,.42-4.26,0-4.26,0h-5.78a36.28,36.28,0,0,1-4.56-2.44c-1.1-.87-3.17-2.94-3.65-4.26-.55-1.5-.31-6.39-.31-6.39l1.22-5.32,1.52-2.89,4.57-3.65,3.34-.61,4.26.3,4,1.52,3.35,3a11.36,11.36,0,0,1,1.82,2.28,10.58,10.58,0,0,1,0,2.74l-1.82,5.63-1.83,3.34L165,94.49l-4.71,1.82L156.5,96l-3.65-2.43-1.52-4.87s-.41-4.28,0-5.63a14.76,14.76,0,0,1,1.82-2.74,17.89,17.89,0,0,1,3-2.89,17.56,17.56,0,0,1,4.11-.61,8.43,8.43,0,0,1,2.28,0c1.23.47,3.95,3.5,3.95,3.5l1.22,2.74s.42,3.61,0,4.71a11.79,11.79,0,0,1-2.13,2.44l-3.35,1.22H158a8.63,8.63,0,0,1-2.43-.92,7,7,0,0,1-1.52-3.65,7.65,7.65,0,0,1,.91-3.8,12.24,12.24,0,0,1,3-1.68s1.71-1.32,2.29-1.06c1.62.74,3.55,6,2,6.85-.55.29-2-1.53-2-1.53"/></g><g id="Layer_13" data-name="Layer 13"><polygon class="cls-7" points="100.37 98.04 114.17 107.83 123.26 107.83 128.85 107.83 136.02 106.6 141.9 106.43 148.16 105.12 154.72 104.33 158.04 104.59 161.8 102.93 168.17 101.1 174.38 98.75 176.04 98.75 175.08 106.86 172.02 116.21 170.36 121.89 169.31 126.79 168.26 130.63 166.78 136.4 165.64 141.12 162.93 146.8 157.16 146.18 148.95 142.95 141.9 140.5 135.06 138.41 130.29 136.49 125.01 135.77 121.34 133.78 117.67 135.41 113.91 137.71 110.07 139.72 107.01 141.29 103.17 133.6 101.42 127.83 101.33 119.8 100.37 107.04 100.37 98.04"/></g><g id="Layer_14" data-name="Layer 14"><line class="cls-7" x1="101.5" y1="123.48" x2="169.55" y2="124.89"/><line class="cls-7" x1="114.78" y1="107.71" x2="115.45" y2="136.25"/><line class="cls-7" x1="129.91" y1="107.71" x2="130.66" y2="137.85"/><line class="cls-7" x1="144.16" y1="105.64" x2="145.13" y2="143.39"/><line class="cls-7" x1="157.7" y1="104.33" x2="158.23" y2="148.46"/></g><g id="B"><path class="cls-8" d="M149.45,179.93c.73-4.83-3-7.43-8-9.17l1.63-6.55-4-1-1.59,6.38c-1.05-.26-2.13-.51-3.2-.75l1.6-6.42-4-1L130.31,168c-.87-.2-1.72-.39-2.55-.6v0L122.27,166l-1.07,4.26s3,.67,2.9.72a2.12,2.12,0,0,1,1.86,2.32l-1.86,7.46.41.13-.42-.1-2.61,10.45a1.44,1.44,0,0,1-1.82,1s-2.9-.73-2.9-.73l-2,4.57,5.19,1.29c1,.24,1.91.5,2.84.74l-1.65,6.62,4,1,1.64-6.55c1.08.29,2.14.57,3.17.82l-1.63,6.53,4,1,1.65-6.61c6.8,1.29,11.91.77,14.07-5.38,1.73-5-.09-7.81-3.67-9.67C147,185.19,148.93,183.47,149.45,179.93Zm-9.11,12.78c-1.23,4.95-9.57,2.27-12.27,1.6l2.19-8.78C133,186.21,141.63,187.54,140.34,192.71Zm1.24-12.85c-1.13,4.5-8.07,2.22-10.32,1.66l2-8C135.5,174.12,142.75,175.16,141.58,179.86Z"/></g><g id="Layer_17" data-name="Layer 17"><path d="M171.35,283.06a1.43,1.43,0,0,1-.72.13,1.21,1.21,0,0,1-1.15-1.31,1.46,1.46,0,0,1,1.54-1.46,1.11,1.11,0,0,1,1.1,1.21c0,.6-.38.93-.76.91-.16,0-.3-.12-.27-.36h0a.62.62,0,0,1-.58.32.46.46,0,0,1-.41-.52,1,1,0,0,1,1-.9,1.13,1.13,0,0,1,.42.1l-.17.72c-.08.3,0,.44.1.45s.44-.24.46-.71a.91.91,0,0,0-.91-1,1.23,1.23,0,0,0-1.27,1.27,1,1,0,0,0,1,1.13,1.35,1.35,0,0,0,.62-.11Zm-.13-1.73a.46.46,0,0,0-.2,0,.68.68,0,0,0-.67.68c0,.18.07.31.25.32s.45-.27.51-.52Z"/><path d="M174.64,282.9a0,0,0,0,1,0,.07l-.86-.05a.11.11,0,0,1-.09-.07l-.37-.89h-.05l0,.88s0,.05-.07.05l-.7,0a.06.06,0,0,1-.06-.06l.13-2.64a.06.06,0,0,1,.06-.06l1.06,0a.93.93,0,0,1,1,1,.88.88,0,0,1-.53.74Zm-1.14-1.61a.21.21,0,0,0,.24-.2.21.21,0,0,0-.22-.22h-.23l0,.42Z"/><path d="M177.4,283.05s0,.05,0,.05l-.79,0a.08.08,0,0,1-.08-.05l-.1-.43-.75,0-.14.42a.11.11,0,0,1-.09.05l-.79,0a0,0,0,0,1,0-.06l1-2.6s.06-.05.1-.05l.81,0a.13.13,0,0,1,.1.06Zm-1.32-1.82-.26.75.44,0Z"/><path d="M179.9,280.47a.06.06,0,0,1,.06.06l-.13,2.64a.06.06,0,0,1-.06.05l-.69,0a.1.1,0,0,1-.08-.06l-.64-1.27-.06,1.23a.06.06,0,0,1-.06.06l-.71,0a.06.06,0,0,1-.05-.06l.13-2.64a.05.05,0,0,1,.06-.05l.69,0a.1.1,0,0,1,.09.06l.63,1.27.06-1.23a.06.06,0,0,1,.06-.06Z"/><path d="M181.24,280.53a1.38,1.38,0,1,1-.14,2.76l-.93-.05a.06.06,0,0,1,0-.06l.13-2.64a.06.06,0,0,1,.06-.05Zm-.06,2c.31,0,.53-.24.55-.63s-.17-.67-.48-.69H181l-.06,1.32Z"/><path d="M185.24,280.73a0,0,0,0,1,0,.07l-1,1.54,0,1.05a.07.07,0,0,1-.07.05l-.7,0s-.06,0-.06-.06l.06-1.05-.81-1.63s0-.07.05-.06l.83,0a.11.11,0,0,1,.09.07l.29.73.36-.7a.11.11,0,0,1,.1-.06Z"/><path d="M188.49,280.89a.06.06,0,0,1,.06.06l-.13,2.64s0,.06-.06.06l-.74,0a.06.06,0,0,1-.06-.06l.06-1.17-.46,1.15s-.07.05-.1.05l-.44,0a.12.12,0,0,1-.1-.06l-.35-1.19,0,1.17a.07.07,0,0,1-.07,0l-.73,0a.07.07,0,0,1-.06-.06l.13-2.64a.06.06,0,0,1,.06-.06l.83,0a.16.16,0,0,1,.14.09l.47,1.55.63-1.5a.19.19,0,0,1,.14-.07Z"/><path d="M190.9,283.53s0,.05,0,.07a1.74,1.74,0,0,1-.85.19,1.44,1.44,0,0,1,.14-2.88,1.68,1.68,0,0,1,.83.28.05.05,0,0,1,0,.07l-.29.54s-.05.05-.08,0a.8.8,0,0,0-.46-.13.59.59,0,0,0-.63.62.6.6,0,0,0,.57.69.85.85,0,0,0,.47-.09.05.05,0,0,1,.07,0Z"/><path d="M194.35,281.18a.06.06,0,0,1,.05.06l-.13,2.64a.06.06,0,0,1-.06.06l-.73,0a.06.06,0,0,1-.06-.06l.06-1.17-.47,1.15s-.06.05-.1.05l-.44,0a.11.11,0,0,1-.09-.06L192,282.6l-.06,1.17a.06.06,0,0,1-.06.05l-.74,0a.06.06,0,0,1,0-.06l.13-2.64a.06.06,0,0,1,.06-.06l.83,0a.15.15,0,0,1,.13.09l.48,1.55.63-1.5a.16.16,0,0,1,.14-.07Z"/><path d="M195.46,281.24a.06.06,0,0,1,.06.06l-.14,2.64s0,.05-.06.05l-.7,0s-.06,0-.06-.06l.13-2.64a.06.06,0,0,1,.06-.06Z"/><path d="M197.28,283.37a0,0,0,0,1,0,.06l-.08.6a.08.08,0,0,1-.07.05l-1.44-.07a.06.06,0,0,1-.06-.06l.13-2.64a.05.05,0,0,1,.07-.05l.7,0a.06.06,0,0,1,.06.06l-.1,2Z"/><path d="M199.06,283.46a0,0,0,0,1,.05.05l-.08.61a.08.08,0,0,1-.07.05l-1.44-.07a.06.06,0,0,1-.06-.06l.13-2.64a.07.07,0,0,1,.07-.06l.7,0a.06.06,0,0,1,.06.06l-.1,2Z"/><path d="M201.86,284.26s0,.05,0,.05l-.79,0a.11.11,0,0,1-.09,0l-.09-.43-.75,0-.14.41a.12.12,0,0,1-.09.05l-.79,0a0,0,0,0,1,0-.06l1-2.6s.06,0,.1,0l.81,0a.1.1,0,0,1,.09.06Zm-1.32-1.82-.26.75.43,0Z"/><path d="M204.36,281.68a.06.06,0,0,1,.06.06l-.13,2.64a.06.06,0,0,1-.06.05l-.69,0a.11.11,0,0,1-.09-.06l-.63-1.27-.06,1.23a.06.06,0,0,1-.06.06l-.71,0a.06.06,0,0,1-.05-.06l.13-2.64a0,0,0,0,1,.06-.05l.69,0a.13.13,0,0,1,.09.06l.63,1.27.06-1.23a.06.06,0,0,1,.06-.06Z"/></g></svg>